<svg xmlns="http://www.w3.org/2000/svg" xmlns:xlink="http://www.w3.org/1999/xlink" version="1.1" viewBox="0 0 91 91" enable-background="new 0 0 91 91" xml:space="preserve"><path d="M74.953,64.974c-1.319-1.322-3.082-2.051-4.96-2.051c-1.131,0-2.22,0.27-3.196,0.769l-7.349-7.347    c5.402-6.103,8.36-13.866,8.36-22.087c0-8.918-3.476-17.305-9.783-23.614c-6.307-6.307-14.693-9.781-23.612-9.781    c-8.92,0-17.307,3.474-23.616,9.781c-13.02,13.022-13.02,34.208,0,47.226c6.307,6.307,14.693,9.782,23.614,9.782    c8.221,0,15.982-2.958,22.085-8.355l7.319,7.318c-1.423,2.651-1.019,6.036,1.218,8.276l13.462,13.464    c1.321,1.321,3.082,2.051,4.962,2.051c1.877,0,3.639-0.729,4.957-2.051c2.736-2.735,2.736-7.186,0-9.921L74.953,64.974z     M13.75,54.918c-11.391-11.391-11.391-29.927,0-41.322c5.52-5.518,12.859-8.558,20.664-8.558c7.803,0,15.142,3.04,20.661,8.558    c5.518,5.521,8.56,12.859,8.56,20.662c0,7.806-3.04,15.142-8.56,20.66c-5.519,5.519-12.857,8.56-20.663,8.56    C26.606,63.478,19.268,60.437,13.75,54.918z"/><path d="M15.617,21.719l6.493,3.127c0.112,0.053,0.232,0.082,0.353,0.082s0.241-0.028,0.351-0.082l18.453-8.863    c0.281-0.137,0.46-0.42,0.46-0.732s-0.179-0.597-0.46-0.732l-6.493-3.123c-0.222-0.106-0.481-0.106-0.704,0l-18.45,8.859    c-0.281,0.135-0.46,0.42-0.46,0.732S15.335,21.584,15.617,21.719z"/><path d="M32.394,33.273l-19.168-9.23c-0.255-0.12-0.55-0.106-0.785,0.045c-0.236,0.147-0.381,0.408-0.381,0.687V45.25    c0,0.312,0.179,0.595,0.46,0.732l19.168,9.229c0.112,0.053,0.232,0.079,0.353,0.079c0.15,0,0.301-0.041,0.432-0.124    c0.236-0.149,0.381-0.408,0.381-0.688V34.005C32.854,33.693,32.675,33.408,32.394,33.273z M17.196,33.962    c0.257-0.538,0.805-0.885,1.398-0.885c0.234,0,0.463,0.053,0.679,0.159l7.063,3.398c0.373,0.179,0.654,0.493,0.793,0.887    c0.137,0.394,0.112,0.815-0.069,1.192c-0.356,0.75-1.311,1.101-2.075,0.724l-7.063-3.398c-0.373-0.179-0.657-0.493-0.793-0.885    C16.991,34.761,17.015,34.339,17.196,33.962z"/><path d="M56.766,45.25V24.783c0-0.279-0.143-0.539-0.379-0.687c-0.238-0.149-0.534-0.167-0.785-0.045l-19.17,9.222    c-0.281,0.134-0.46,0.42-0.46,0.732v20.472c0,0.279,0.145,0.538,0.381,0.688c0.13,0.083,0.281,0.124,0.432,0.124    c0.121,0,0.241-0.026,0.353-0.079l19.169-9.229C56.586,45.845,56.766,45.562,56.766,45.25z"/><path d="M53.671,21.006c0-0.312-0.179-0.598-0.458-0.732l-6.48-3.121c-0.225-0.106-0.483-0.106-0.705,0l-18.453,8.861    c-0.281,0.135-0.458,0.418-0.46,0.732c0,0.312,0.179,0.595,0.46,0.732l6.487,3.123c0.112,0.053,0.232,0.079,0.353,0.079    s0.241-0.026,0.353-0.079l18.445-8.864C53.492,21.601,53.671,21.317,53.671,21.006z"/></svg>